<?xml version="1.0" encoding="UTF-8"?>
<svg id="Layer_1" data-name="Layer 1" xmlns="http://www.w3.org/2000/svg" version="1.1" viewBox="0 0 500 500">
  <defs>
    <style>
      .cls-1 {
        isolation: isolate;
      }

      .cls-2 {
        fill: none;
        stroke: #fff;
        stroke-miterlimit: 10;
        stroke-width: 17px;
      }

      .cls-3 {
        fill: #fff;
        stroke-width: 0px;
      }
    </style>
  </defs>
  <g id="Layer_1-2" data-name="Layer 1-2">
    <g id="svg_7" data-name="svg 7">
      <g id="svg_4" data-name="svg 4" class="cls-1">
        <path class="cls-3" d="M95.8,268.6c-9.8-6-17.4-14.4-22.9-25.2-5.4-10.8-8.2-23.2-8.2-37.2s2.7-26.3,8.2-37.2c5.4-10.8,13-19.2,22.9-25.2,9.8-6,20.9-8.9,33.5-8.9s19.8,1.9,28.1,5.8c8.2,3.9,15,9.7,20.3,17.4,5.3,7.7,8.7,16.9,10.5,27.8h-30.9c-1.4-8-4.4-14.1-9.2-18.5-4.7-4.4-10.9-6.6-18.3-6.6s-12.7,1.8-17.6,5.6c-4.9,3.7-8.5,8.9-11,15.7-2.5,6.8-3.8,14.9-3.8,24.1s1.3,17.4,3.8,24.1c2.5,6.8,6.1,12.1,11,15.7,4.9,3.7,10.7,5.6,17.6,5.6s13.5-2.3,18.2-6.7c4.9-4.5,7.9-10.7,9.3-18.5h30.9c-1.7,10.9-5.2,20.2-10.5,27.8s-12,13.5-20.3,17.4c-8.3,4-17.6,5.9-28,5.9s-23.8-3-33.5-8.9h-.1Z"/>
        <path class="cls-3" d="M205.1,137.5h60.5c9.8,0,18.3,1.8,25.5,5.4s12.8,8.7,16.7,15.5c3.9,6.7,5.8,14.6,5.8,23.5s-1.9,16.5-5.7,23.1c-3.9,6.6-9.3,11.5-16.4,15.1-7.1,3.6-15.4,5.3-25,5.3h-30.1v49.7h-31.5v-137.6h.1ZM262.9,201.4c6,0,10.7-1.7,14.1-5.2s5.2-8.2,5.2-14.3-1.7-10.8-5.2-14.2-8.2-5.2-14.1-5.2h-26.3v38.9h26.3Z"/>
        <path class="cls-3" d="M328.8,137.5h60.5c9.8,0,18.3,1.8,25.5,5.4,7.2,3.6,12.8,8.7,16.7,15.5,3.9,6.7,5.8,14.6,5.8,23.5s-1.9,16.5-5.7,23.1c-3.9,6.6-9.3,11.5-16.4,15.1s-15.4,5.3-25,5.3h-30.1v49.7h-31.5v-137.6h.1ZM386.6,201.4c6,0,10.7-1.7,14.1-5.2s5.2-8.2,5.2-14.3-1.7-10.8-5.2-14.2-8.2-5.2-14.1-5.2h-26.3v38.9h26.3Z"/>
      </g>
      <g id="svg_6" data-name="svg 6" class="cls-1">
        <path class="cls-3" d="M86.7,352.2c1.6,2.7,4.1,4,7.1,4s4.2-.8,5.6-2.3c1.4-1.5,2.4-3.6,2.8-6.3h14.9c-.5,4.1-1.9,7.7-4,10.8-2,3.1-4.7,5.5-8.1,7.1s-7,2.5-11.2,2.5-9.5-1.2-13.4-3.4c-3.9-2.4-6.9-5.5-9.1-9.7-2.2-4.1-3.2-8.8-3.2-14s1.1-9.9,3.2-14.1c2.2-4.1,5.2-7.3,9.1-9.7s8.3-3.4,13.4-3.4,7.9.9,11.2,2.5,6,4,8.1,7.1c2,3,3.4,6.7,4,10.7h-14.9c-.5-2.6-1.5-4.6-2.8-6.1s-3.2-2.3-5.6-2.3-5.5,1.4-7.1,4.1-2.5,6.5-2.5,11.3.9,8.5,2.5,11.2h0Z"/>
        <path class="cls-3" d="M133.5,364.7c-3.9-2.4-6.9-5.5-9.1-9.7-2.2-4.1-3.2-8.8-3.2-14s1.1-9.9,3.2-14.1c2.2-4.1,5.2-7.3,9.1-9.7,3.9-2.4,8.3-3.4,13.4-3.4s9.4,1.2,13.3,3.4c3.9,2.4,6.9,5.6,9.1,9.7s3.2,8.8,3.2,14.1-1.1,9.9-3.2,14-5.2,7.3-9.1,9.7c-3.9,2.4-8.3,3.4-13.3,3.4s-9.4-1.2-13.4-3.4ZM139.8,352.2c1.7,2.7,4,4,7,4s5.4-1.3,7-4c1.7-2.7,2.5-6.5,2.5-11.3s-.9-8.6-2.5-11.3c-1.7-2.7-4-4-7-4s-5.4,1.3-7,4-2.5,6.5-2.5,11.3.9,8.6,2.5,11.3Z"/>
        <path class="cls-3" d="M179.1,315h15v9.8c1.3-3.8,3.3-6.6,6-8.4,2.8-1.8,5.9-2.8,9.5-2.8s5.9.8,8.3,2.2,4.2,3.4,5.5,6c1.3,2.6,1.9,5.7,1.9,9.3v35.8h-15.5v-31.8c0-2.9-.5-5.1-1.7-6.6s-2.9-2.3-5.2-2.3-4.5,1-6,2.8c-1.5,1.9-2.3,4.5-2.3,7.9v30h-15.5v-51.7h0Z"/>
        <path class="cls-3" d="M234,315h15v9.8c1.3-3.8,3.3-6.6,6-8.4,2.8-1.8,5.9-2.8,9.5-2.8s5.9.8,8.3,2.2,4.2,3.4,5.5,6,1.9,5.7,1.9,9.3v35.8h-15.5v-31.8c0-2.9-.5-5.1-1.7-6.6s-2.9-2.3-5.2-2.3-4.5,1-6,2.8c-1.5,1.9-2.3,4.5-2.3,7.9v30h-15.5v-51.7h0Z"/>
        <path class="cls-3" d="M298.8,364.7c-3.8-2.3-6.8-5.5-8.9-9.7-2.2-4.1-3.2-8.8-3.2-14.1s1.1-9.9,3.2-14.1c2.2-4.1,5.2-7.3,8.9-9.7s8.2-3.4,13.2-3.4,9.2,1.1,12.8,3.3c3.6,2.3,6.4,5.5,8.3,9.7,1.9,4.2,2.9,9.3,2.9,15.2v2.2h-33.7c.3,4.4,1.4,7.8,3.1,10,1.7,2.3,4.1,3.3,7,3.3s4.3-.6,5.8-1.9c1.6-1.3,2.7-3.1,3.2-5.4h14c-.8,3.8-2.2,7-4.3,9.8-2.2,2.7-4.9,4.9-8.1,6.3s-7,2.2-11.1,2.2-9.4-1.2-13.3-3.4h.1ZM321.5,336.2c-.2-3.7-1.1-6.6-2.8-8.6s-3.8-3.1-6.5-3.1-4.9,1-6.6,3-2.8,5-3.2,8.7h19.1Z"/>
        <path class="cls-3" d="M359.1,352.2c1.6,2.7,4.1,4,7.1,4s4.2-.8,5.6-2.3c1.4-1.5,2.4-3.6,2.8-6.3h14.9c-.5,4.1-1.9,7.7-4,10.8-2,3.1-4.7,5.5-8.1,7.1s-7,2.5-11.2,2.5-9.5-1.2-13.4-3.4-6.9-5.5-9.1-9.7c-2.2-4.1-3.2-8.8-3.2-14s1.1-9.9,3.2-14.1c2.2-4.1,5.2-7.3,9.1-9.7,3.9-2.4,8.3-3.4,13.4-3.4s7.9.9,11.2,2.5,6,4,8.1,7.1,3.4,6.7,4,10.7h-14.9c-.5-2.6-1.5-4.6-2.8-6.1-1.4-1.5-3.2-2.3-5.6-2.3s-5.5,1.4-7.1,4.1-2.5,6.5-2.5,11.3.9,8.5,2.5,11.2h0Z"/>
        <path class="cls-3" d="M414.9,326.5v22.9c0,2,.5,3.6,1.6,4.5,1.1,1,2.7,1.5,5,1.5s3.2-.1,5.3-.4v11.6c-3.1.6-6.5.9-10,.9-5.8,0-10.2-1.4-13.2-4.1-2.9-2.7-4.3-6.9-4.3-12.4v-24.7h-7.1v-10.8h1.1c2.3,0,4-.3,5.2-.9s2-1.5,2.6-2.8.8-3.2.8-5.7v-6.8h13v15.4h11.9v11.5h-11.9v.2Z"/>
      </g>
    </g>
  </g>
  <rect class="cls-2" x="13" y="13" width="474" height="474" rx="40.7" ry="40.7"/>
</svg>