<?xml version="1.0" encoding="UTF-8"?>
<svg id="Layer_1" data-name="Layer 1" xmlns="http://www.w3.org/2000/svg" version="1.1" viewBox="0 0 274 30.1">
  <defs>
    <style>
      .cls-1 {
        fill: #0000cd;
        stroke-width: 0px;
      }
    </style>
  </defs>
  <polygon class="cls-1" points="113.6 0 113.6 30.1 133.2 30.1 133.2 24.8 119.3 24.8 119.3 17.3 132 17.3 132 12.2 119.3 12.2 119.3 5.3 133.2 5.3 133.2 0 113.6 0"/>
  <path class="cls-1" d="M89.9,4.9h-4.2v10.2h4.2c3.3,0,5.7-1.6,5.7-5.1s-2.4-5.1-5.7-5.1M90.2,19.9h-4.5v10.2h-5.7V0h10.2c6.4,0,11.4,2.9,11.4,9.9s-5.1,9.9-11.4,9.9"/>
  <polygon class="cls-1" points="182.8 0 182.8 5.3 189.9 5.3 189.9 24.8 182.8 24.8 182.8 30.1 202.7 30.1 202.7 24.8 195.6 24.8 195.6 5.3 202.7 5.3 202.7 0 182.8 0"/>
  <path class="cls-1" d="M163.7,9.3c0,3.6-2.1,4.8-5.7,4.8h-4.8V4.9h4.8c3.9,0,5.7,1.5,5.7,4.5M169.7,9.3C169.7,2.3,164.9,0,158.5,0h-11.1v30.1h5.7v-11.1h5.6l5.8,11.1h6.3l-6.5-12.3c3.1-1.4,5.2-4.1,5.2-8.4"/>
  <path class="cls-1" d="M227.8,5.3l4.1,13.3h-8.2l4.1-13.3ZM224,0l-9.9,30.1h6l2-6.6h11.2l2.1,6.6h6L231.6,0h-7.6Z"/>
  <polygon class="cls-1" points="254.4 0 254.4 30.1 274 30.1 274 24.8 260.1 24.8 260.1 0 254.4 0"/>
  <polygon class="cls-1" points="57.3 0 50 17.7 42.8 0 34.7 0 34.7 30.1 40.1 30.1 40.1 7.6 47 23.5 47.3 23.5 52.7 23.5 53 23.5 60 7.6 60 30.1 65.4 30.1 65.4 0 57.3 0"/>
  <polygon class="cls-1" points="0 0 0 5.3 7.1 5.3 7.1 24.8 0 24.8 0 30.1 19.9 30.1 19.9 24.8 12.8 24.8 12.8 5.3 19.9 5.3 19.9 0 0 0"/>
</svg>