<?xml version="1.0" standalone="no"?>
<!DOCTYPE svg PUBLIC "-//W3C//DTD SVG 20010904//EN"
 "http://www.w3.org/TR/2001/REC-SVG-20010904/DTD/svg10.dtd">
<svg version="1.0" xmlns="http://www.w3.org/2000/svg"
 width="700.000000pt" height="700.000000pt" viewBox="0 0 700.000000 700.000000"
 preserveAspectRatio="xMidYMid meet">
<metadata>
Created by potrace 1.14, written by Peter Selinger 2001-2017
</metadata>
<g transform="translate(0.000000,700.000000) scale(0.100000,-0.100000)"
fill="#000000" stroke="none">
<path d="M781 6985 c-101 -22 -159 -44 -261 -97 -232 -120 -405 -330 -487
-593 l-28 -90 0 -2705 0 -2705 28 -88 c89 -284 271 -496 531 -618 45 -21 117
-48 161 -61 l80 -23 2700 0 2700 0 88 28 c333 104 570 341 674 674 l28 88 0
2705 0 2705 -28 88 c-104 333 -341 570 -674 674 l-88 28 -2680 2 c-2257 1
-2690 -1 -2744 -12z m4927 -471 c212 -44 385 -138 534 -292 125 -129 199 -256
255 -437 l28 -90 0 -2195 0 -2195 -28 -90 c-110 -357 -355 -602 -712 -712
l-90 -28 -2195 0 -2195 0 -90 28 c-187 58 -330 144 -457 275 -125 129 -199
256 -255 437 l-28 90 -3 2160 c-3 2347 -5 2217 50 2380 100 291 349 539 639
634 158 52 39 49 2332 50 1917 1 2146 -1 2215 -15z"/>
<path d="M1355 6236 c-147 -27 -274 -95 -385 -206 -80 -80 -126 -150 -167
-252 -55 -136 -54 -51 -51 -2318 l3 -2095 23 -75 c79 -254 265 -439 517 -512
l80 -23 2125 0 2125 0 80 23 c254 74 443 263 517 517 l23 80 0 2125 0 2125
-23 80 c-73 252 -258 438 -512 517 l-75 23 -2105 2 c-1675 1 -2119 -1 -2175
-11z m854 -1956 c307 -39 504 -231 575 -562 l6 -28 -178 0 -178 0 -18 59 c-45
152 -162 241 -316 241 -185 0 -319 -130 -364 -352 -20 -97 -20 -290 -1 -382
31 -147 109 -262 213 -313 78 -38 194 -44 274 -13 98 36 178 134 203 248 l7
32 179 0 179 0 -6 -27 c-17 -81 -50 -176 -82 -238 -46 -88 -163 -208 -247
-252 -175 -92 -421 -107 -618 -38 -103 35 -173 81 -264 171 -69 69 -89 97
-132 185 -74 152 -95 248 -95 439 0 129 4 170 23 245 93 363 357 582 716 594
22 0 78 -4 124 -9z m1666 -40 c75 -18 185 -73 237 -119 96 -85 146 -199 155
-351 14 -252 -99 -425 -334 -512 -52 -19 -83 -22 -315 -26 l-258 -4 0 -294 0
-294 -180 0 -180 0 0 811 0 811 413 -5 c276 -3 429 -9 462 -17z m1473 -3 c238
-63 382 -249 382 -496 0 -240 -123 -412 -347 -488 -38 -13 -104 -17 -305 -20
l-258 -5 0 -294 0 -294 -180 0 -180 0 0 811 0 811 413 -5 c339 -3 423 -7 475
-20z"/>
<path d="M3360 3736 l0 -236 173 0 c201 0 255 11 304 62 51 54 66 95 66 175 0
96 -29 156 -98 198 l-48 30 -199 3 -198 4 0 -236z"/>
<path d="M4820 3736 l0 -236 173 0 c204 0 255 11 310 66 46 46 61 91 61 175 0
91 -32 153 -99 194 l-48 30 -199 3 -198 4 0 -236z"/>
</g>
</svg>
