<?xml version="1.0" encoding="UTF-8"?>
<svg id="Layer_1" data-name="Layer 1" xmlns="http://www.w3.org/2000/svg" viewBox="0 0 1024 1024">
  <defs>
    <style>
      .cls-1 {
        fill: none;
        stroke: #fff;
        stroke-miterlimit: 10;
        stroke-width: 43px;
      }

      .cls-2 {
        fill: #0000cd;
      }

      .cls-2, .cls-3 {
        stroke-width: 0px;
      }

      .cls-3 {
        fill: #fff;
      }
    </style>
  </defs>
  <rect class="cls-2" x="0" width="1024" height="1024" rx="142.89" ry="142.89"/>
  <g>
    <path class="cls-3" d="M249.07,627.22c-16.88-10.36-30-24.88-39.37-43.56-9.37-18.68-14.05-40.07-14.05-64.16s4.68-45.48,14.05-64.16c9.37-18.68,22.49-33.2,39.37-43.56,16.88-10.36,36.2-15.54,57.96-15.54,18.16,0,34.33,3.38,48.54,10.13,14.2,6.75,25.84,16.73,34.92,29.94,9.08,13.21,15.07,29.24,17.98,48.1h-53.42c-2.33-13.73-7.62-24.41-15.89-32.04-8.27-7.62-18.8-11.44-31.6-11.44-11.87,0-22,3.2-30.38,9.6-8.38,6.4-14.73,15.48-19.03,27.24-4.31,11.76-6.46,25.66-6.46,41.73s2.15,29.97,6.46,41.73c4.3,11.76,10.65,20.84,19.03,27.24,8.38,6.4,18.51,9.6,30.38,9.6,12.68,0,23.19-3.87,31.51-11.61,8.32-7.74,13.65-18.42,15.98-32.04h53.42c-2.91,18.86-8.9,34.89-17.98,48.1-9.08,13.21-20.75,23.22-35,30.03-14.26,6.81-30.41,10.21-48.45,10.21-21.77,0-41.09-5.18-57.96-15.54Z"/>
    <path class="cls-3" d="M437.8,400.78h104.4c16.88,0,31.57,3.12,44.08,9.34,12.51,6.23,22.14,15.13,28.89,26.71,6.75,11.58,10.13,25.11,10.13,40.59s-3.32,28.52-9.95,39.81c-6.63,11.29-16.06,19.99-28.28,26.1-12.22,6.11-26.6,9.17-43.12,9.17h-51.85v85.72h-54.3v-237.44ZM537.49,511.12c10.36,0,18.51-3,24.44-8.99,5.94-5.99,8.9-14.23,8.9-24.7s-2.97-18.68-8.9-24.62c-5.94-5.94-14.08-8.9-24.44-8.9h-45.39v67.22h45.39Z"/>
    <path class="cls-3" d="M651.5,400.78h104.4c16.88,0,31.57,3.12,44.08,9.34,12.51,6.23,22.14,15.13,28.89,26.71,6.75,11.58,10.13,25.11,10.13,40.59s-3.32,28.52-9.95,39.81c-6.63,11.29-16.06,19.99-28.28,26.1-12.22,6.11-26.6,9.17-43.12,9.17h-51.85v85.72h-54.3v-237.44ZM751.19,511.12c10.36,0,18.51-3,24.44-8.99,5.94-5.99,8.9-14.23,8.9-24.7s-2.97-18.68-8.9-24.62c-5.94-5.94-14.08-8.9-24.44-8.9h-45.39v67.22h45.39Z"/>
  </g>
  <rect class="cls-1" x="89" y="89" width="846" height="846" rx="129.25" ry="129.25"/>
</svg>